# xmcd CD database file generated by Grip 2.95
# 
# Track frame offsets:
#       150
#       34395
#       58350
#       69731
#       96964
#       129030
#       144311
#       164531
#       176332
# 
# Disc length: 2687 seconds
# 
# Revision: 3
# Processed by: cddbd v1.4b41PL2 Copyright (c) Steve Scherf et al.
# Submitted via: Grip 2.95
# 
DISCID=7f0a7d09
DTITLE=King Curtis - Live at Fillmore West
DYEAR=1900
DGENRE=
TTITLE0=Memphis Soul Stew
TTITLE1=A Whiter Shade Of Pale
TTITLE2=Whole Lotta Love
TTITLE3=I Stand Accused
TTITLE4=Changes
TTITLE5=Ode To Billy Joe
TTITLE6=Mr. Bojangles
TTITLE7=Signed Sealed Deliverd I'm Yours
TTITLE8=Soul Serenade
EXTD=
EXTT0=
EXTT1=
EXTT2=
EXTT3=
EXTT4=
EXTT5=
EXTT6=
EXTT7=
EXTT8=
PLAYORDER=
